<?xml version="1.0" encoding="UTF-8" standalone="no"?>
<!DOCTYPE svg PUBLIC "-//W3C//DTD SVG 1.1//EN"
 "http://www.w3.org/Graphics/SVG/1.1/DTD/svg11.dtd">
<!-- Generated by graphviz version 2.40.1 (20161225.0304)
 -->
<!-- Title: %3 Pages: 1 -->
<svg width="1366pt" height="476pt"
 viewBox="0.00 0.00 1365.83 476.00" xmlns="http://www.w3.org/2000/svg" xmlns:xlink="http://www.w3.org/1999/xlink">
<g id="graph0" class="graph" transform="scale(1 1) rotate(0) translate(4 472)">
<title>%3</title>
<polygon fill="#ffffff" stroke="transparent" points="-4,4 -4,-472 1361.8299,-472 1361.8299,4 -4,4"/>
<!-- [root] data.ibm_network_vlan.csc_private_vlan_1 -->
<g id="node1" class="node">
<title>[root] data.ibm_network_vlan.csc_private_vlan_1</title>
<polygon fill="none" stroke="#000000" points="449.2428,-180 195.2428,-180 195.2428,-144 449.2428,-144 449.2428,-180"/>
<text text-anchor="middle" x="322.2428" y="-158.3" font-family="Times,serif" font-size="14.00" fill="#000000">data.ibm_network_vlan.csc_private_vlan_1</text>
</g>
<!-- [root] provider.ibm -->
<g id="node5" class="node">
<title>[root] provider.ibm</title>
<polygon fill="none" stroke="#000000" points="593.2428,-108 512.471,-90 593.2428,-72 674.0146,-90 593.2428,-108"/>
<text text-anchor="middle" x="593.2428" y="-86.3" font-family="Times,serif" font-size="14.00" fill="#000000">provider.ibm</text>
</g>
<!-- [root] data.ibm_network_vlan.csc_private_vlan_1&#45;&gt;[root] provider.ibm -->
<g id="edge1" class="edge">
<title>[root] data.ibm_network_vlan.csc_private_vlan_1&#45;&gt;[root] provider.ibm</title>
<path fill="none" stroke="#000000" d="M390.2777,-143.9243C438.9034,-131.0053 503.0916,-113.9516 546.1472,-102.5125"/>
<polygon fill="#000000" stroke="#000000" points="547.31,-105.8251 556.0759,-99.8746 545.5125,-99.0598 547.31,-105.8251"/>
</g>
<!-- [root] data.ibm_network_vlan.csc_public_vlan_1 -->
<g id="node2" class="node">
<title>[root] data.ibm_network_vlan.csc_public_vlan_1</title>
<polygon fill="none" stroke="#000000" points="718.7428,-180 467.7428,-180 467.7428,-144 718.7428,-144 718.7428,-180"/>
<text text-anchor="middle" x="593.2428" y="-158.3" font-family="Times,serif" font-size="14.00" fill="#000000">data.ibm_network_vlan.csc_public_vlan_1</text>
</g>
<!-- [root] data.ibm_network_vlan.csc_public_vlan_1&#45;&gt;[root] provider.ibm -->
<g id="edge2" class="edge">
<title>[root] data.ibm_network_vlan.csc_public_vlan_1&#45;&gt;[root] provider.ibm</title>
<path fill="none" stroke="#000000" d="M593.2428,-143.8314C593.2428,-136.131 593.2428,-126.9743 593.2428,-118.4166"/>
<polygon fill="#000000" stroke="#000000" points="596.7429,-118.4132 593.2428,-108.4133 589.7429,-118.4133 596.7429,-118.4132"/>
</g>
<!-- [root] ibm_compute_ssh_key.csc_lab_ssh_key -->
<g id="node3" class="node">
<title>[root] ibm_compute_ssh_key.csc_lab_ssh_key</title>
<polygon fill="none" stroke="#000000" points="973.7428,-180 736.7428,-180 736.7428,-144 973.7428,-144 973.7428,-180"/>
<text text-anchor="middle" x="855.2428" y="-158.3" font-family="Times,serif" font-size="14.00" fill="#000000">ibm_compute_ssh_key.csc_lab_ssh_key</text>
</g>
<!-- [root] ibm_compute_ssh_key.csc_lab_ssh_key&#45;&gt;[root] provider.ibm -->
<g id="edge3" class="edge">
<title>[root] ibm_compute_ssh_key.csc_lab_ssh_key&#45;&gt;[root] provider.ibm</title>
<path fill="none" stroke="#000000" d="M789.4673,-143.9243C742.6957,-131.071 681.0312,-114.1251 639.4114,-102.6875"/>
<polygon fill="#000000" stroke="#000000" points="640.1148,-99.2512 629.5448,-99.9761 638.2599,-106.0009 640.1148,-99.2512"/>
</g>
<!-- [root] ibm_compute_vm_instance.csc_vm_1 -->
<g id="node4" class="node">
<title>[root] ibm_compute_vm_instance.csc_vm_1</title>
<polygon fill="none" stroke="#000000" points="837.7428,-252 610.7428,-252 610.7428,-216 837.7428,-216 837.7428,-252"/>
<text text-anchor="middle" x="724.2428" y="-230.3" font-family="Times,serif" font-size="14.00" fill="#000000">ibm_compute_vm_instance.csc_vm_1</text>
</g>
<!-- [root] ibm_compute_vm_instance.csc_vm_1&#45;&gt;[root] data.ibm_network_vlan.csc_private_vlan_1 -->
<g id="edge4" class="edge">
<title>[root] ibm_compute_vm_instance.csc_vm_1&#45;&gt;[root] data.ibm_network_vlan.csc_private_vlan_1</title>
<path fill="none" stroke="#000000" d="M623.5793,-215.9707C565.6488,-205.5951 492.763,-192.5409 433.1849,-181.8702"/>
<polygon fill="#000000" stroke="#000000" points="433.4444,-178.3611 422.984,-180.0432 432.2103,-185.2515 433.4444,-178.3611"/>
</g>
<!-- [root] ibm_compute_vm_instance.csc_vm_1&#45;&gt;[root] data.ibm_network_vlan.csc_public_vlan_1 -->
<g id="edge5" class="edge">
<title>[root] ibm_compute_vm_instance.csc_vm_1&#45;&gt;[root] data.ibm_network_vlan.csc_public_vlan_1</title>
<path fill="none" stroke="#000000" d="M691.186,-215.8314C674.2751,-206.5368 653.5043,-195.1208 635.4486,-185.1971"/>
<polygon fill="#000000" stroke="#000000" points="636.7385,-181.9122 626.289,-180.1628 633.3668,-188.0468 636.7385,-181.9122"/>
</g>
<!-- [root] ibm_compute_vm_instance.csc_vm_1&#45;&gt;[root] ibm_compute_ssh_key.csc_lab_ssh_key -->
<g id="edge6" class="edge">
<title>[root] ibm_compute_vm_instance.csc_vm_1&#45;&gt;[root] ibm_compute_ssh_key.csc_lab_ssh_key</title>
<path fill="none" stroke="#000000" d="M757.2996,-215.8314C774.2105,-206.5368 794.9813,-195.1208 813.0369,-185.1971"/>
<polygon fill="#000000" stroke="#000000" points="815.1188,-188.0468 822.1965,-180.1628 811.7471,-181.9122 815.1188,-188.0468"/>
</g>
<!-- [root] var.private_key_file_name -->
<g id="node6" class="node">
<title>[root] var.private_key_file_name</title>
<ellipse fill="none" stroke="#000000" cx="1120.2428" cy="-162" rx="128.0773" ry="18"/>
<text text-anchor="middle" x="1120.2428" y="-158.3" font-family="Times,serif" font-size="14.00" fill="#000000">[root] var.private_key_file_name</text>
</g>
<!-- [root] ibm_compute_vm_instance.csc_vm_1&#45;&gt;[root] var.private_key_file_name -->
<g id="edge7" class="edge">
<title>[root] ibm_compute_vm_instance.csc_vm_1&#45;&gt;[root] var.private_key_file_name</title>
<path fill="none" stroke="#000000" d="M823.4039,-215.9707C887.4236,-204.3308 969.9846,-189.3197 1031.7772,-178.0846"/>
<polygon fill="#000000" stroke="#000000" points="1032.6848,-181.4771 1041.8974,-176.2446 1031.4325,-174.59 1032.6848,-181.4771"/>
</g>
<!-- [root] var.ibmcloud_api_key -->
<g id="node12" class="node">
<title>[root] var.ibmcloud_api_key</title>
<ellipse fill="none" stroke="#000000" cx="331.2428" cy="-18" rx="112.3801" ry="18"/>
<text text-anchor="middle" x="331.2428" y="-14.3" font-family="Times,serif" font-size="14.00" fill="#000000">[root] var.ibmcloud_api_key</text>
</g>
<!-- [root] provider.ibm&#45;&gt;[root] var.ibmcloud_api_key -->
<g id="edge15" class="edge">
<title>[root] provider.ibm&#45;&gt;[root] var.ibmcloud_api_key</title>
<path fill="none" stroke="#000000" d="M556.8128,-79.9887C515.8173,-68.7228 448.3638,-50.1859 397.8799,-36.3125"/>
<polygon fill="#000000" stroke="#000000" points="398.5923,-32.8786 388.0223,-33.6035 396.7373,-39.6283 398.5923,-32.8786"/>
</g>
<!-- [root] var.ibmcloud_iaaS_api_key -->
<g id="node13" class="node">
<title>[root] var.ibmcloud_iaaS_api_key</title>
<ellipse fill="none" stroke="#000000" cx="593.2428" cy="-18" rx="131.8766" ry="18"/>
<text text-anchor="middle" x="593.2428" y="-14.3" font-family="Times,serif" font-size="14.00" fill="#000000">[root] var.ibmcloud_iaaS_api_key</text>
</g>
<!-- [root] provider.ibm&#45;&gt;[root] var.ibmcloud_iaaS_api_key -->
<g id="edge16" class="edge">
<title>[root] provider.ibm&#45;&gt;[root] var.ibmcloud_iaaS_api_key</title>
<path fill="none" stroke="#000000" d="M593.2428,-71.8314C593.2428,-64.131 593.2428,-54.9743 593.2428,-46.4166"/>
<polygon fill="#000000" stroke="#000000" points="596.7429,-46.4132 593.2428,-36.4133 589.7429,-46.4133 596.7429,-46.4132"/>
</g>
<!-- [root] var.ibmcloud_iaaS_username -->
<g id="node14" class="node">
<title>[root] var.ibmcloud_iaaS_username</title>
<ellipse fill="none" stroke="#000000" cx="881.2428" cy="-18" rx="138.3755" ry="18"/>
<text text-anchor="middle" x="881.2428" y="-14.3" font-family="Times,serif" font-size="14.00" fill="#000000">[root] var.ibmcloud_iaaS_username</text>
</g>
<!-- [root] provider.ibm&#45;&gt;[root] var.ibmcloud_iaaS_username -->
<g id="edge17" class="edge">
<title>[root] provider.ibm&#45;&gt;[root] var.ibmcloud_iaaS_username</title>
<path fill="none" stroke="#000000" d="M631.487,-80.439C676.1616,-69.2703 751.1023,-50.5351 807.2628,-36.495"/>
<polygon fill="#000000" stroke="#000000" points="808.3124,-39.8404 817.1649,-34.0195 806.6146,-33.0494 808.3124,-39.8404"/>
</g>
<!-- [root] meta.count&#45;boundary (count boundary fixup) -->
<g id="node7" class="node">
<title>[root] meta.count&#45;boundary (count boundary fixup)</title>
<ellipse fill="none" stroke="#000000" cx="526.2428" cy="-378" rx="193.0657" ry="18"/>
<text text-anchor="middle" x="526.2428" y="-374.3" font-family="Times,serif" font-size="14.00" fill="#000000">[root] meta.count&#45;boundary (count boundary fixup)</text>
</g>
<!-- [root] output.vm_id -->
<g id="node8" class="node">
<title>[root] output.vm_id</title>
<ellipse fill="none" stroke="#000000" cx="81.2428" cy="-306" rx="81.4863" ry="18"/>
<text text-anchor="middle" x="81.2428" y="-302.3" font-family="Times,serif" font-size="14.00" fill="#000000">[root] output.vm_id</text>
</g>
<!-- [root] meta.count&#45;boundary (count boundary fixup)&#45;&gt;[root] output.vm_id -->
<g id="edge8" class="edge">
<title>[root] meta.count&#45;boundary (count boundary fixup)&#45;&gt;[root] output.vm_id</title>
<path fill="none" stroke="#000000" d="M418.8406,-362.9874C348.3192,-352.804 254.1296,-338.5846 171.2428,-324 164.6001,-322.8312 157.6936,-321.5567 150.7921,-320.2436"/>
<polygon fill="#000000" stroke="#000000" points="151.1974,-316.7574 140.7155,-318.2998 149.8715,-323.6307 151.1974,-316.7574"/>
</g>
<!-- [root] output.vm_ipv4_address -->
<g id="node9" class="node">
<title>[root] output.vm_ipv4_address</title>
<ellipse fill="none" stroke="#000000" cx="300.2428" cy="-306" rx="120.4791" ry="18"/>
<text text-anchor="middle" x="300.2428" y="-302.3" font-family="Times,serif" font-size="14.00" fill="#000000">[root] output.vm_ipv4_address</text>
</g>
<!-- [root] meta.count&#45;boundary (count boundary fixup)&#45;&gt;[root] output.vm_ipv4_address -->
<g id="edge9" class="edge">
<title>[root] meta.count&#45;boundary (count boundary fixup)&#45;&gt;[root] output.vm_ipv4_address</title>
<path fill="none" stroke="#000000" d="M471.8226,-360.6626C438.537,-350.0583 395.8783,-336.468 361.4237,-325.4913"/>
<polygon fill="#000000" stroke="#000000" points="362.0677,-322.0232 351.4771,-322.3224 359.9428,-328.6929 362.0677,-322.0232"/>
</g>
<!-- [root] output.vm_ipv4_address_private -->
<g id="node10" class="node">
<title>[root] output.vm_ipv4_address_private</title>
<ellipse fill="none" stroke="#000000" cx="588.2428" cy="-306" rx="149.4735" ry="18"/>
<text text-anchor="middle" x="588.2428" y="-302.3" font-family="Times,serif" font-size="14.00" fill="#000000">[root] output.vm_ipv4_address_private</text>
</g>
<!-- [root] meta.count&#45;boundary (count boundary fixup)&#45;&gt;[root] output.vm_ipv4_address_private -->
<g id="edge10" class="edge">
<title>[root] meta.count&#45;boundary (count boundary fixup)&#45;&gt;[root] output.vm_ipv4_address_private</title>
<path fill="none" stroke="#000000" d="M541.888,-359.8314C549.2128,-351.3251 558.0678,-341.0419 566.0675,-331.752"/>
<polygon fill="#000000" stroke="#000000" points="568.9443,-333.775 572.8174,-323.9134 563.6399,-329.2073 568.9443,-333.775"/>
</g>
<!-- [root] output.vm_id&#45;&gt;[root] ibm_compute_vm_instance.csc_vm_1 -->
<g id="edge11" class="edge">
<title>[root] output.vm_id&#45;&gt;[root] ibm_compute_vm_instance.csc_vm_1</title>
<path fill="none" stroke="#000000" d="M139.6737,-293.4317C150.153,-291.4298 160.9977,-289.5208 171.2428,-288 318.0496,-266.2074 488.1394,-251.1046 600.4989,-242.522"/>
<polygon fill="#000000" stroke="#000000" points="600.8056,-246.0089 610.5123,-241.7627 600.2763,-239.0289 600.8056,-246.0089"/>
</g>
<!-- [root] output.vm_ipv4_address&#45;&gt;[root] ibm_compute_vm_instance.csc_vm_1 -->
<g id="edge12" class="edge">
<title>[root] output.vm_ipv4_address&#45;&gt;[root] ibm_compute_vm_instance.csc_vm_1</title>
<path fill="none" stroke="#000000" d="M379.9939,-292.4574C444.2597,-281.5443 535.5213,-266.047 607.9334,-253.7506"/>
<polygon fill="#000000" stroke="#000000" points="608.7483,-257.1625 618.0212,-252.0376 607.5764,-250.2613 608.7483,-257.1625"/>
</g>
<!-- [root] output.vm_ipv4_address_private&#45;&gt;[root] ibm_compute_vm_instance.csc_vm_1 -->
<g id="edge13" class="edge">
<title>[root] output.vm_ipv4_address_private&#45;&gt;[root] ibm_compute_vm_instance.csc_vm_1</title>
<path fill="none" stroke="#000000" d="M621.5121,-288.3868C639.4342,-278.8987 661.7561,-267.0812 681.0097,-256.8881"/>
<polygon fill="#000000" stroke="#000000" points="682.6965,-259.9554 689.8968,-252.1832 679.4213,-253.7688 682.6965,-259.9554"/>
</g>
<!-- [root] provider.ibm (close) -->
<g id="node11" class="node">
<title>[root] provider.ibm (close)</title>
<ellipse fill="none" stroke="#000000" cx="861.2428" cy="-306" rx="105.8812" ry="18"/>
<text text-anchor="middle" x="861.2428" y="-302.3" font-family="Times,serif" font-size="14.00" fill="#000000">[root] provider.ibm (close)</text>
</g>
<!-- [root] provider.ibm (close)&#45;&gt;[root] ibm_compute_vm_instance.csc_vm_1 -->
<g id="edge14" class="edge">
<title>[root] provider.ibm (close)&#45;&gt;[root] ibm_compute_vm_instance.csc_vm_1</title>
<path fill="none" stroke="#000000" d="M828.4279,-288.7542C810.25,-279.2009 787.4205,-267.2029 767.7685,-256.8748"/>
<polygon fill="#000000" stroke="#000000" points="769.182,-253.6638 758.7017,-252.1098 765.9255,-259.8602 769.182,-253.6638"/>
</g>
<!-- [root] provisioner.file (close) -->
<g id="node15" class="node">
<title>[root] provisioner.file (close)</title>
<ellipse fill="none" stroke="#000000" cx="935.2428" cy="-378" rx="113.9803" ry="18"/>
<text text-anchor="middle" x="935.2428" y="-374.3" font-family="Times,serif" font-size="14.00" fill="#000000">[root] provisioner.file (close)</text>
</g>
<!-- [root] provisioner.file (close)&#45;&gt;[root] ibm_compute_vm_instance.csc_vm_1 -->
<g id="edge18" class="edge">
<title>[root] provisioner.file (close)&#45;&gt;[root] ibm_compute_vm_instance.csc_vm_1</title>
<path fill="none" stroke="#000000" d="M954.1813,-359.9682C972.1402,-340.6753 993.9455,-309.8981 976.2428,-288 959.3594,-267.1155 902.8995,-253.9435 847.6915,-245.8431"/>
<polygon fill="#000000" stroke="#000000" points="848.1616,-242.3748 837.7696,-244.4383 847.1802,-249.3057 848.1616,-242.3748"/>
</g>
<!-- [root] provisioner.remote&#45;exec (close) -->
<g id="node16" class="node">
<title>[root] provisioner.remote&#45;exec (close)</title>
<ellipse fill="none" stroke="#000000" cx="1212.2428" cy="-378" rx="145.6742" ry="18"/>
<text text-anchor="middle" x="1212.2428" y="-374.3" font-family="Times,serif" font-size="14.00" fill="#000000">[root] provisioner.remote&#45;exec (close)</text>
</g>
<!-- [root] provisioner.remote&#45;exec (close)&#45;&gt;[root] ibm_compute_vm_instance.csc_vm_1 -->
<g id="edge19" class="edge">
<title>[root] provisioner.remote&#45;exec (close)&#45;&gt;[root] ibm_compute_vm_instance.csc_vm_1</title>
<path fill="none" stroke="#000000" d="M1176.0089,-360.4843C1133.3843,-340.4852 1060.0708,-307.9643 994.2428,-288 947.1492,-273.7175 894.2693,-262.1895 847.8725,-253.5103"/>
<polygon fill="#000000" stroke="#000000" points="848.238,-250.0188 837.7689,-251.6459 846.9677,-256.9026 848.238,-250.0188"/>
</g>
<!-- [root] root -->
<g id="node17" class="node">
<title>[root] root</title>
<ellipse fill="none" stroke="#000000" cx="864.2428" cy="-450" rx="47.3916" ry="18"/>
<text text-anchor="middle" x="864.2428" y="-446.3" font-family="Times,serif" font-size="14.00" fill="#000000">[root] root</text>
</g>
<!-- [root] root&#45;&gt;[root] meta.count&#45;boundary (count boundary fixup) -->
<g id="edge20" class="edge">
<title>[root] root&#45;&gt;[root] meta.count&#45;boundary (count boundary fixup)</title>
<path fill="none" stroke="#000000" d="M822.7974,-441.1714C771.0702,-430.1526 681.2269,-411.0144 613.9482,-396.6828"/>
<polygon fill="#000000" stroke="#000000" points="614.2834,-393.1757 603.7736,-394.5154 612.8249,-400.0221 614.2834,-393.1757"/>
</g>
<!-- [root] root&#45;&gt;[root] provider.ibm (close) -->
<g id="edge21" class="edge">
<title>[root] root&#45;&gt;[root] provider.ibm (close)</title>
<path fill="none" stroke="#000000" d="M842.1081,-433.904C830.8669,-424.3167 818.3265,-411.0885 812.2428,-396 806.2596,-381.1608 806.4801,-374.9262 812.2428,-360 816.3969,-349.2402 823.8006,-339.2994 831.6146,-330.9575"/>
<polygon fill="#000000" stroke="#000000" points="834.2146,-333.3077 838.8248,-323.7684 829.2721,-328.3507 834.2146,-333.3077"/>
</g>
<!-- [root] root&#45;&gt;[root] provisioner.file (close) -->
<g id="edge22" class="edge">
<title>[root] root&#45;&gt;[root] provisioner.file (close)</title>
<path fill="none" stroke="#000000" d="M881.0688,-432.937C889.8264,-424.0561 900.7036,-413.0257 910.4084,-403.1841"/>
<polygon fill="#000000" stroke="#000000" points="913.0174,-405.5231 917.5468,-395.9453 908.0332,-400.6081 913.0174,-405.5231"/>
</g>
<!-- [root] root&#45;&gt;[root] provisioner.remote&#45;exec (close) -->
<g id="edge23" class="edge">
<title>[root] root&#45;&gt;[root] provisioner.remote&#45;exec (close)</title>
<path fill="none" stroke="#000000" d="M906.2197,-441.3151C960.7534,-430.0323 1057.2594,-410.0655 1127.3477,-395.5645"/>
<polygon fill="#000000" stroke="#000000" points="1128.4053,-398.9199 1137.4887,-393.4664 1126.987,-392.0651 1128.4053,-398.9199"/>
</g>
</g>
</svg>
